<mxfile host="65bd71144e">
    <diagram id="ymlS-klvnotnv3PCxBTw" name="Page-1">
        <mxGraphModel dx="1120" dy="592" grid="0" gridSize="10" guides="1" tooltips="1" connect="1" arrows="1" fold="1" page="0" pageScale="1" pageWidth="850" pageHeight="1100" math="0" shadow="0">
            <root>
                <mxCell id="0"/>
                <mxCell id="1" parent="0"/>
                <mxCell id="2" value="Equipment" style="swimlane;" vertex="1" parent="1">
                    <mxGeometry x="570" y="170" width="710" height="940" as="geometry"/>
                </mxCell>
                <mxCell id="7" value="&lt;div style=&quot;color: rgb(187 , 187 , 187) ; background-color: rgb(48 , 56 , 69) ; font-family: &amp;#34;consolas&amp;#34; , &amp;#34;courier new&amp;#34; , monospace ; font-size: 14px ; line-height: 19px&quot;&gt;ULyraEquipmentInstance&lt;/div&gt;" style="rounded=1;whiteSpace=wrap;html=1;" vertex="1" parent="2">
                    <mxGeometry x="200" y="570" width="220" height="80" as="geometry"/>
                </mxCell>
                <mxCell id="8" value="Vertical Container" style="swimlane;" vertex="1" parent="2">
                    <mxGeometry x="100" y="60" width="370" height="330" as="geometry"/>
                </mxCell>
                <mxCell id="5" value="&lt;div style=&quot;color: rgb(187 , 187 , 187) ; background-color: rgb(48 , 56 , 69) ; font-family: &amp;#34;consolas&amp;#34; , &amp;#34;courier new&amp;#34; , monospace ; font-size: 14px ; line-height: 19px&quot;&gt;ULyraEquipmentManagerComponent&lt;/div&gt;" style="rounded=1;whiteSpace=wrap;html=1;" vertex="1" parent="8">
                    <mxGeometry x="30" y="50" width="290" height="85" as="geometry"/>
                </mxCell>
                <mxCell id="10" value="FLyraEquipmentList" style="swimlane;fontStyle=0;childLayout=stackLayout;horizontal=1;startSize=30;horizontalStack=0;resizeParent=1;resizeParentMax=0;resizeLast=0;collapsible=1;marginBottom=0;" vertex="1" parent="8">
                    <mxGeometry x="92.5" y="180" width="185" height="60" as="geometry"/>
                </mxCell>
                <mxCell id="11" value="AddEntry" style="text;strokeColor=none;fillColor=none;align=left;verticalAlign=middle;spacingLeft=4;spacingRight=4;overflow=hidden;points=[[0,0.5],[1,0.5]];portConstraint=eastwest;rotatable=0;" vertex="1" parent="10">
                    <mxGeometry y="30" width="185" height="30" as="geometry"/>
                </mxCell>
                <mxCell id="14" style="edgeStyle=none;html=1;exitX=1;exitY=0.5;exitDx=0;exitDy=0;entryX=1;entryY=0.5;entryDx=0;entryDy=0;" edge="1" parent="2" source="11" target="7">
                    <mxGeometry relative="1" as="geometry">
                        <Array as="points">
                            <mxPoint x="620" y="285"/>
                            <mxPoint x="630" y="610"/>
                        </Array>
                    </mxGeometry>
                </mxCell>
                <mxCell id="16" style="edgeStyle=none;html=1;exitX=0;exitY=0.5;exitDx=0;exitDy=0;entryX=0;entryY=0.5;entryDx=0;entryDy=0;" edge="1" parent="2" source="15" target="11">
                    <mxGeometry relative="1" as="geometry">
                        <Array as="points">
                            <mxPoint x="30" y="480"/>
                            <mxPoint x="30" y="285"/>
                        </Array>
                    </mxGeometry>
                </mxCell>
                <mxCell id="15" value="&lt;div style=&quot;color: rgb(187 , 187 , 187) ; background-color: rgb(48 , 56 , 69) ; font-family: &amp;#34;consolas&amp;#34; , &amp;#34;courier new&amp;#34; , monospace ; font-size: 14px ; line-height: 19px&quot;&gt;&lt;span style=&quot;color: #dbb979&quot;&gt;ULyraEquipmentDefinition&lt;/span&gt;&lt;/div&gt;" style="rounded=1;whiteSpace=wrap;html=1;" vertex="1" parent="2">
                    <mxGeometry x="195" y="440" width="225" height="80" as="geometry"/>
                </mxCell>
                <mxCell id="3" value="Inventory" style="swimlane;" vertex="1" parent="1">
                    <mxGeometry x="-70" y="180" width="460" height="570" as="geometry"/>
                </mxCell>
                <mxCell id="4" value="&lt;div style=&quot;color: rgb(187 , 187 , 187) ; background-color: rgb(48 , 56 , 69) ; font-family: &amp;#34;consolas&amp;#34; , &amp;#34;courier new&amp;#34; , monospace ; font-size: 14px ; line-height: 19px&quot;&gt;LyraInventoryManagerComponent&lt;/div&gt;" style="rounded=1;whiteSpace=wrap;html=1;" vertex="1" parent="3">
                    <mxGeometry x="55" y="70" width="275" height="70" as="geometry"/>
                </mxCell>
                <mxCell id="6" value="&lt;div style=&quot;color: rgb(187 , 187 , 187) ; background-color: rgb(48 , 56 , 69) ; font-family: &amp;#34;consolas&amp;#34; , &amp;#34;courier new&amp;#34; , monospace ; font-size: 14px ; line-height: 19px&quot;&gt;ULyraInventoryItemInstance&lt;/div&gt;" style="rounded=1;whiteSpace=wrap;html=1;" vertex="1" parent="3">
                    <mxGeometry x="60" y="420" width="238" height="80" as="geometry"/>
                </mxCell>
            </root>
        </mxGraphModel>
    </diagram>
</mxfile>